# xmcd
#
# Track frame offsets:
#	150
#	5147
#	34738
#	52094
#	74926
#	89571
#	108463
#	123855
#	145149
#	159940
#	177541
#	189708
#	205833
#	234414
#	255832
#	270088
#	293429
#	308578
#	326679
#
# Disc length: 4654 seconds
#
# Revision: 4
# Processed by: cddbd v1.5.2PL0 Copyright (c) Steve Scherf et al.
# Submitted via: audiograbber 1.83.01
#
DISCID=0e122c13
DTITLE=Saxon - Crusader (EMI Remaster)
DYEAR=1984
DGENRE=Heavy Metal
TTITLE0=The Crusader Prelude
TTITLE1=Crusader
TTITLE2=A Little Bit Of What You Fancy
TTITLE3=Sailing To America
TTITLE4=Set Me Free (The Sweet)
TTITLE5=Just Let Me Rock
TTITLE6=Bad Boys (Like To Rock 'N' Roll)
TTITLE7=Do It All For You
TTITLE8=Rock City
TTITLE9=Run For Your Lives
TTITLE10=Borderline (Kaley Studio Demos 1983)
TTITLE11=Helter Skelter (Kaley Studio Demos 1983)
TTITLE12=Crusader (Kaley Studio Demos 1983)
TTITLE13=Do It All For You (Kaley Studio Demos 1983)
TTITLE14=A Little Bit Of What You Fancy (Kaley Studio Demos 1983)
TTITLE15=Sailing To America (Kaley Studio Demos 1983)
TTITLE16=Set Me Free (Kaley Studio Demos 1983)
TTITLE17=Just Let Me Rock (Kaley Studio Demos 1983)
TTITLE18=Do It All For You (Intro) - Run For Your Lives (Kaley Studio Demos 198
TTITLE18=3)
EXTD=
EXTT0=
EXTT1=
EXTT2=
EXTT3=
EXTT4=
EXTT5=
EXTT6=
EXTT7=
EXTT8=
EXTT9=
EXTT10=
EXTT11=
EXTT12=
EXTT13=
EXTT14=
EXTT15=
EXTT16=
EXTT17=
EXTT18=
PLAYORDER=
